<?xml version="1.0" encoding="UTF-8"?>
<svg version="1.1" xmlns="http://www.w3.org/2000/svg" width="457" height="407">
<path d="M0 0 C150.81 0 301.62 0 457 0 C457 134.31 457 268.62 457 407 C306.19 407 155.38 407 0 407 C0 272.69 0 138.38 0 0 Z " fill="#FEFEFE" transform="translate(0,0)"/>
<path d="M0 0 C2.36140293 -0.00286711 4.72271644 -0.01145001 7.08409691 -0.02198887 C15.34091537 -0.05879788 23.59747801 -0.07535051 31.85437584 -0.07218266 C39.5257919 -0.06977062 47.19609114 -0.11220071 54.86722422 -0.17515731 C61.48508015 -0.22751703 68.1025707 -0.24891658 74.72063208 -0.24636102 C78.66027473 -0.2453446 82.59891683 -0.25655456 86.53835106 -0.29907322 C90.23599009 -0.33791223 93.93167545 -0.3380449 97.62938499 -0.30900669 C99.62212204 -0.30286169 101.61486024 -0.33611866 103.60730553 -0.37076664 C109.88274294 -0.28299018 113.70575865 0.04146539 118.30542564 4.54225826 C120.25609644 6.83706467 121.88991315 9.15885769 123.56336021 11.66902828 C126.44931967 12.2538395 126.44931967 12.2538395 129.68836021 12.35652828 C130.78406334 12.42227047 131.87976646 12.48801266 133.00867271 12.55574703 C133.85171959 12.59312984 134.69476646 12.63051266 135.56336021 12.66902828 C135.74898521 11.70996578 135.74898521 11.70996578 135.93836021 10.73152828 C136.14461021 10.05090328 136.35086021 9.37027828 136.56336021 8.66902828 C140.05097193 6.92522243 143.8579373 7.80035771 147.56336021 8.66902828 C150.25282802 10.86950194 150.48353368 12.20004742 151.06336021 15.60652828 C150.37639347 19.8141996 148.99062132 21.18973302 145.56336021 23.66902828 C141.12192287 24.20506382 139.31383503 24.16934483 135.56336021 21.66902828 C132.35675581 21.64355015 129.18016164 21.63677318 125.98328209 21.89363766 C123.472086 21.89124376 121.90302072 21.63944323 119.56336021 20.66902828 C118.20915632 18.86236674 116.90125718 17.02070522 115.62268639 15.15975094 C112.57343866 11.41489663 109.91649101 9.41207801 105.07646751 8.69055843 C99.46476516 8.25317043 93.8632057 8.43060852 88.24304771 8.59480953 C86.17229932 8.61535251 84.10149709 8.63099803 82.03067589 8.64197445 C76.60740404 8.68376846 71.18742679 8.79162995 65.76544762 8.91371822 C60.22197599 9.02670087 54.67796639 9.07658044 49.13367271 9.13191891 C38.27546245 9.24952479 27.41968637 9.43700154 16.56336021 9.66902828 C16.18117254 11.32517486 15.8494092 12.99359853 15.56336021 14.66902828 C17.74118703 16.8468551 22.814391 15.92992744 25.84851646 15.98543453 C27.24474487 16.01660618 27.24474487 16.01660618 28.66917992 16.04840755 C31.65466204 16.11400759 34.64023505 16.1728363 37.62586021 16.23152828 C39.64474998 16.27470358 41.66363041 16.31831753 43.68250084 16.36238766 C48.64269318 16.46969957 53.6029773 16.57093716 58.56336021 16.66902828 C59.22336021 15.34902828 59.88336021 14.02902828 60.56336021 12.66902828 C64.48892097 12.36114116 66.95913382 12.36048714 70.50086021 14.16902828 C73.00001026 17.19830107 73.30935051 18.91630394 73.04382896 22.76277828 C72.56336021 24.66902828 72.56336021 24.66902828 70.50086021 27.16902828 C66.95913382 28.97756942 64.48892097 28.9769154 60.56336021 28.66902828 C59.57336021 26.68902828 59.57336021 26.68902828 58.56336021 24.66902828 C49.32336021 24.99902828 40.08336021 25.32902828 30.56336021 25.66902828 C30.23336021 27.31902828 29.90336021 28.96902828 29.56336021 30.66902828 C32.68101881 33.78668688 44.26704823 32.22318411 48.68079185 32.29378414 C50.71905518 32.33544089 52.75701576 32.39680679 54.7940731 32.47835445 C64.25406419 33.00820422 64.25406419 33.00820422 73.56336021 31.66902828 C76.14614632 29.19765228 77.09444849 27.22040905 78.37415123 23.91536617 C79.56336021 21.66902828 79.56336021 21.66902828 81.75452232 20.84651852 C84.37943763 20.68800368 86.82196642 20.7879054 89.43836021 21.04402828 C90.31750084 21.08914547 91.19664146 21.13426266 92.10242271 21.18074703 C94.25902743 21.29795381 96.41209694 21.47733155 98.56336021 21.66902828 C98.89336021 20.67902828 99.22336021 19.68902828 99.56336021 18.66902828 C102.70207209 17.09967234 105.10191843 17.31701725 108.56336021 17.66902828 C111.56336021 19.73152828 111.56336021 19.73152828 113.56336021 22.66902828 C113.63280419 26.62733473 113.13330811 28.81410644 110.93836021 32.10652828 C107.63840712 34.27755006 105.4328461 34.1615083 101.56336021 33.66902828 C99.62586021 32.29402828 99.62586021 32.29402828 98.56336021 30.66902828 C98.56336021 30.00902828 98.56336021 29.34902828 98.56336021 28.66902828 C93.94336021 28.66902828 89.32336021 28.66902828 84.56336021 28.66902828 C83.90336021 30.31902828 83.24336021 31.96902828 82.56336021 33.66902828 C81.87202374 35.11477938 81.16470726 36.55304576 80.43836021 37.98152828 C80.08515709 38.67891109 79.73195396 39.37629391 79.36804771 40.09480953 C79.10250084 40.61430172 78.83695396 41.13379391 78.56336021 41.66902828 C77.31214378 41.67489452 76.06092735 41.68076077 74.77179527 41.68680477 C62.94362824 41.74417561 51.11564252 41.81701187 39.2876606 41.90474319 C33.20769912 41.94934954 27.12780315 41.98862705 21.04773521 42.01546383 C15.17317038 42.04159398 9.29885897 42.08206478 3.42445183 42.13221455 C1.19036845 42.14881774 -1.0437587 42.16037257 -3.27789497 42.16664219 C-27.09050889 42.11215578 -27.09050889 42.11215578 -47.43663979 53.48543453 C-57.11467454 63.81006213 -58.923102 74.38855838 -58.71398354 87.95027828 C-58.493991 93.51904465 -57.26878957 97.86054968 -54.43663979 102.66902828 C-54.01253822 103.44375484 -53.58843666 104.21848141 -53.15148354 105.01668453 C-48.20120899 113.27633482 -40.4385809 119.26585542 -31.43663979 122.66902828 C-27.8235649 123.51250824 -24.39568041 123.83844313 -20.69054604 123.95027828 C-19.49075111 123.98677486 -18.29095619 124.02327145 -17.05480385 124.06087399 C-16.39967812 124.07832668 -15.74455238 124.09577938 -15.06957436 124.11376095 C-12.94013934 124.17060322 -10.81098635 124.23461557 -8.68175697 124.29866695 C1.22889584 124.58028815 11.13774269 124.71469148 21.05197906 124.79575634 C25.21241331 124.83167447 29.3727583 124.87728212 33.5331049 124.92210484 C37.68366969 124.96526545 41.83388017 124.99065923 45.98464298 125.00342941 C49.26623731 125.01860337 52.5475608 125.0590342 55.82898521 125.09480953 C57.593246 125.09188648 57.593246 125.09188648 59.39314842 125.08890438 C82.5296492 125.42690775 102.47328209 136.68639643 118.56336021 152.66902828 C127.94666073 162.53618223 134.42916656 175.44530712 137.56336021 188.66902828 C137.91011803 189.87301266 138.25687584 191.07699703 138.61414146 192.31746578 C139.81350583 197.14412125 139.90761377 201.83956693 139.87586021 206.79402828 C139.87022057 207.71909176 139.86458092 208.64415524 139.85877037 209.59725094 C139.46115401 232.22201553 130.08141721 252.35960953 114.08875084 268.22127438 C98.67357828 282.85187189 78.78715068 291.07160497 57.52380943 290.89607906 C56.57625282 290.89637112 55.62869621 290.89666317 54.65242577 290.89696407 C51.55753601 290.89558399 48.46289479 290.88008567 45.36804771 290.86434078 C43.20757745 290.86060595 41.04710549 290.8577612 38.88663292 290.85576534 C33.22810672 290.84816595 27.56968484 290.82854948 21.91119957 290.80635738 C16.12599663 290.78581904 10.34077668 290.77674661 4.55554771 290.76668453 C-6.77522703 290.74529986 -18.1059247 290.71120892 -29.43663979 290.66902828 C-29.69831947 291.30840328 -29.95999916 291.94777828 -30.22960854 292.60652828 C-31.43663979 294.66902828 -31.43663979 294.66902828 -34.74913979 295.66902828 C-38.43663979 295.66902828 -38.43663979 295.66902828 -41.31163979 293.85652828 C-43.79420567 291.30094575 -44.35729271 290.38315194 -44.74913979 286.85652828 C-44.35042367 282.78962388 -43.55080208 281.31606623 -40.43663979 278.66902828 C-37.48239184 278.03894723 -35.53008757 278.27620952 -32.43663979 278.66902828 C-31.99279945 279.1682983 -31.54895912 279.66756832 -31.09166908 280.18196774 C-28.55352315 282.4625175 -26.36665039 282.00744472 -23.01867104 281.96199703 C-21.76505775 281.95232906 -20.51144447 281.94266109 -19.21984291 281.93270016 C-17.25434486 281.89499508 -17.25434486 281.89499508 -15.24913979 281.85652828 C-13.91386815 281.84147795 -12.57858042 281.82779015 -11.24328041 281.81551266 C-7.97399402 281.78010522 -4.70551886 281.73071718 -1.43663979 281.66902828 C-1.39391878 280.00290923 -1.39600147 278.33519943 -1.43663979 276.66902828 C-2.96455062 275.14111745 -4.36653386 275.50719371 -6.4974308 275.46370602 C-7.3582476 275.4437608 -8.21906441 275.42381557 -9.10596657 275.40326595 C-10.04137779 275.38655346 -10.97678902 275.36984097 -11.94054604 275.35262203 C-13.37006851 275.32145039 -13.37006851 275.32145039 -14.82847023 275.28964901 C-17.88528389 275.22404651 -20.94218635 275.16521911 -23.99913979 275.10652828 C-26.06620641 275.06335322 -28.13326393 275.01973928 -30.20031166 274.97566891 C-35.27899574 274.86835427 -40.35776949 274.76711738 -45.43663979 274.66902828 C-45.74408119 275.28487789 -46.0515226 275.9007275 -46.36828041 276.53523922 C-48.51487672 280.82254538 -50.28669064 284.04704274 -54.43663979 286.66902828 C-60.2377311 288.16734253 -66.64249915 288.21142404 -72.43663979 286.66902828 C-76.87112675 283.71473408 -79.11920175 279.92305207 -81.76085854 275.40340328 C-83.36550176 273.41069227 -83.36550176 273.41069227 -86.17882729 273.13777828 C-92.50915467 273.20092369 -95.58612421 273.37285734 -100.43663979 277.66902828 C-104.72170639 277.74420489 -106.66667136 277.36002559 -109.87413979 274.48152828 C-111.73879976 271.12514033 -112.06701588 269.45128488 -111.43663979 265.66902828 C-109.87413979 262.85652828 -109.87413979 262.85652828 -107.43663979 260.66902828 C-103.88864133 259.71867155 -101.56251016 259.2838621 -98.06163979 260.48152828 C-96.43663979 261.66902828 -96.43663979 261.66902828 -95.43663979 263.66902828 C-94.23007729 263.62520016 -93.02351479 263.58137203 -91.78038979 263.53621578 C-79.09721467 263.4290452 -79.09721467 263.4290452 -74.46007729 266.89168453 C-69.43663979 273.23948283 -69.43663979 273.23948283 -69.43663979 276.66902828 C-65.47663979 276.66902828 -61.51663979 276.66902828 -57.43663979 276.66902828 C-56.77663979 275.34902828 -56.11663979 274.02902828 -55.43663979 272.66902828 C-51.77768018 267.06565892 -51.77768018 267.06565892 -48.56810951 266.11638546 C-46.32265504 265.89565559 -44.14573704 265.8641392 -41.88976479 265.89949703 C-41.07795753 265.88816235 -40.26615028 265.87682766 -39.42974281 265.8651495 C-36.84805162 265.83450236 -34.2684507 265.84425686 -31.68663979 265.85652828 C-29.09122173 265.8423732 -26.49601756 265.82004549 -23.90069008 265.79434872 C-22.28814732 265.78127432 -20.67551151 265.77657548 -19.06292152 265.78089046 C-15.45281592 266.122911 -15.45281592 266.122911 -12.43663979 264.66902828 C-12.43663979 263.01902828 -12.43663979 261.36902828 -12.43663979 259.66902828 C-27.61663979 259.33902828 -42.79663979 259.00902828 -58.43663979 258.66902828 C-58.76663979 259.65902828 -59.09663979 260.64902828 -59.43663979 261.66902828 C-62.61542673 263.25842175 -64.93231699 263.08479539 -68.43663979 262.66902828 C-71.66005654 259.7885282 -73.19361565 257.85984655 -74.06163979 253.60652828 C-73.19713095 249.54333674 -71.78393151 248.09047336 -68.43663979 245.66902828 C-64.87413979 245.16902828 -64.87413979 245.16902828 -61.43663979 245.66902828 C-60.80874046 246.16634488 -60.18084114 246.66366148 -59.53391457 247.17604828 C-56.96381481 249.00561662 -55.57126686 249.04800067 -52.4427433 249.05670834 C-50.93333923 249.07156528 -50.93333923 249.07156528 -49.39344215 249.08672237 C-48.29523643 249.08222073 -47.19703072 249.07771908 -46.06554604 249.07308102 C-44.32331009 249.08337589 -44.32331009 249.08337589 -42.54587746 249.09387875 C-38.69684127 249.11221361 -34.8482104 249.10829728 -30.99913979 249.10262203 C-28.99787327 249.10602978 -26.99660655 249.10944525 -24.99534225 249.11397511 C-18.69594496 249.12802709 -12.3966832 249.12645767 -6.09728432 249.1150732 C0.37606973 249.10363189 6.84900753 249.11759827 13.32230663 249.14446968 C18.89623122 249.16673155 24.47002621 249.17323944 30.04399204 249.16739327 C33.36549556 249.16404241 36.68667687 249.16804873 40.00815392 249.18364429 C43.72478044 249.19862719 47.44051049 249.18781985 51.15711021 249.17073727 C52.23912209 249.18040524 53.32113396 249.1900732 54.43593407 249.20003414 C66.28672245 249.0867574 76.60056717 245.52894731 85.56336021 237.66902828 C94.62017479 228.31669385 97.94770811 217.34733748 97.77429771 204.53230953 C97.00418903 194.0787972 92.0031784 184.69290256 84.56336021 177.41902828 C72.19696686 167.52311793 60.28143787 166.81594637 45.07117271 166.96980953 C43.11168196 166.96616518 41.1521948 166.95944679 39.19272423 166.94983578 C34.06627299 166.93089452 28.94050511 166.9446763 23.81409264 166.96834469 C15.62022193 167.00290448 7.42652183 166.99667277 -0.76736259 166.97221088 C-3.59884706 166.9698755 -6.42966985 166.98748916 -9.26107216 167.00748348 C-34.51946709 167.07063014 -56.22094818 160.65594061 -75.43663979 143.66902828 C-76.07343666 143.12762203 -76.71023354 142.58621578 -77.36632729 142.02840328 C-86.11969561 134.04145892 -92.04616072 122.51507341 -96.43663979 111.66902828 C-96.7318351 110.99742672 -97.02703041 110.32582516 -97.33117104 109.63387203 C-103.75336473 94.22693446 -102.92261902 75.42846838 -98.43663979 59.66902828 C-98.18140541 58.75121578 -97.92617104 57.83340328 -97.66320229 56.88777828 C-91.29444427 37.0219276 -76.06139929 19.58539835 -57.83898354 9.63387203 C-54.11007814 7.74564053 -50.39194945 6.02816354 -46.43663979 4.66902828 C-45.52058464 4.33746731 -44.6045295 4.00590633 -43.6607151 3.66429806 C-29.47357315 -0.66010643 -14.68572965 0.01003373 0 0 Z " fill="#CB171E" transform="translate(176.4366397857666,58.33097171783447)"/>
<path d="M0 0 C0.48339844 0.50354004 0.96679688 1.00708008 1.46484375 1.52587891 C3.4387274 3.42128436 4.42884244 3.35707673 7.125 3.3359375 C7.91390625 3.34882813 8.7028125 3.36171875 9.515625 3.375 C11.17189343 3.375 12.82818027 3.36718698 14.484375 3.3515625 C16.75507555 3.39608604 18.79172844 3.46393408 21 4 C23.0625 6.5390625 23.0625 6.5390625 24 9 C19.25 12 19.25 12 17 12 C16.67 12.66 16.34 13.32 16 14 C15.67 13.67 15.34 13.34 15 13 C7.14132547 12.14726719 7.14132547 12.14726719 0.1875 15.0625 C-0.534375 15.701875 -1.25625 16.34125 -2 17 C-6.2850666 17.07517661 -8.23003157 16.69099731 -11.4375 13.8125 C-13.30215998 10.45611204 -13.6303761 8.7822566 -13 5 C-9.06764917 -0.89852625 -6.88281267 -1.44901319 0 0 Z " fill="#CB181E" transform="translate(78,319)"/>
<path d="M0 0 C3.875 0.4375 3.875 0.4375 5.875 2.4375 C6.2890625 4.6015625 6.2890625 4.6015625 6.5 7.0625 C6.57476562 7.87976563 6.64953125 8.69703125 6.7265625 9.5390625 C6.80003906 10.47878906 6.80003906 10.47878906 6.875 11.4375 C8.195 11.7675 9.515 12.0975 10.875 12.4375 C9.555 12.4375 8.235 12.4375 6.875 12.4375 C6.5965625 13.3965625 6.5965625 13.3965625 6.3125 14.375 C4.875 16.4375 4.875 16.4375 1.5625 17.4375 C-2.125 17.4375 -2.125 17.4375 -5 15.625 C-7.48256589 13.06941747 -8.04565293 12.15162366 -8.4375 8.625 C-7.89316264 3.07275894 -5.64131775 0.15385412 0 0 Z " fill="#BF1F26" transform="translate(140.125,336.5625)"/>
<path d="M0 0 C0.66 0.66 1.32 1.32 2 2 C1.67 2.66 1.34 3.32 1 4 C0.72824182 6.59248672 0.55427432 9.18448511 0.37890625 11.78515625 C0.25386719 12.51605469 0.12882812 13.24695313 0 14 C-0.99 14.495 -0.99 14.495 -2 15 C-1.34 15.66 -0.68 16.32 0 17 C-3.1875 17.375 -3.1875 17.375 -7 17 C-10.22341676 14.11949992 -11.75697586 12.19081827 -12.625 7.9375 C-11.14149885 0.96504462 -6.66736133 -0.88059489 0 0 Z " fill="#CD262D" transform="translate(115,304)"/>
<path d="M0 0 C2 1 2 1 4 3 C4.45338908 6.17372355 4.69044625 7.98989661 4 11 C1.23236077 14.35471422 -0.36985301 14.9252368 -4.6875 15.4375 C-5.780625 15.293125 -6.87375 15.14875 -8 15 C-8.66 14.01 -9.32 13.02 -10 12 C-9.34 11.34 -8.68 10.68 -8 10 C-7.28591666 8.01643517 -6.61382258 6.01684563 -6 4 C-4.35 4 -2.7 4 -1 4 C-0.67 2.68 -0.34 1.36 0 0 Z " fill="#DB2229" transform="translate(245,72)"/>
<path d="M0 0 C0.66 0.33 1.32 0.66 2 1 C2 1.66 2 2.32 2 3 C1.01 3 0.02 3 -1 3 C-1.20970559 7.14093698 -1.20970559 7.14093698 0 11 C0.66 11 1.32 11 2 11 C2 9.35 2 7.7 2 6 C3.875 5.375 3.875 5.375 6 5 C6.66 5.66 7.32 6.32 8 7 C7.60467975 9.45098556 6.78698574 11.63904279 6 14 C6.66 14.66 7.32 15.32 8 16 C7.67 16.33 7.34 16.66 7 17 C2.87824339 16.84446201 0.67554991 16.60626274 -2.4375 13.8125 C-4.30215998 10.45611204 -4.6303761 8.7822566 -4 5 C-2 2.125 -2 2.125 0 0 Z " fill="#BF1F25" transform="translate(136,337)"/>
<path d="M0 0 C1.9375 0.3125 1.9375 0.3125 4 1 C4.33 1.99 4.66 2.98 5 4 C5.99 4 6.98 4 8 4 C8.66 2.68 9.32 1.36 10 0 C10.46233492 3.9760803 10.30954571 5.56851204 7.9375 8.875 C4.31441362 11.4959561 2.3805057 11.57855736 -2 11 C-2.66 10.34 -3.32 9.68 -4 9 C-3.34 9 -2.68 9 -2 9 C-2.33 8.01 -2.66 7.02 -3 6 C-1.5625 2.8125 -1.5625 2.8125 0 0 Z " fill="#CD1D25" transform="translate(317,71)"/>
<path d="M0 0 C0.99 1.32 1.98 2.64 3 4 C3.556875 3.319375 4.11375 2.63875 4.6875 1.9375 C5.450625 1.298125 6.21375 0.65875 7 0 C9.75 0.25 9.75 0.25 12 1 C11.67 2.65 11.34 4.3 11 6 C10.01 6 9.02 6 8 6 C8.57344937 8.86724686 8.8614515 9.8614515 11 12 C6.91550495 11.76435605 4.65785068 11.59037881 1.5625 8.8125 C-0.22875985 5.58823227 -0.33785628 3.63195497 0 0 Z " fill="#D3353B" transform="translate(65,324)"/>
<path d="M0 0 C1.875 0.3125 1.875 0.3125 4 1 C6 4 6 4 5.75 7.5 C5 11 5 11 3 14 C2.34 14 1.68 14 1 14 C1 12.68 1 11.36 1 10 C-0.65 10 -2.3 10 -4 10 C-4.38218767 8.34385343 -4.71395102 6.67542976 -5 5 C-4 4 -4 4 -1.4375 3.9375 C-0.2309375 3.9684375 -0.2309375 3.9684375 1 4 C0.67 2.68 0.34 1.36 0 0 Z " fill="#D42A31" transform="translate(284,77)"/>
<path d="M0 0 C2.0625 0.4375 2.0625 0.4375 4 1 C4.59732819 3.76264289 5 6.16032769 5 9 C4.01 9.495 4.01 9.495 3 10 C3.66 10.66 4.32 11.32 5 12 C-1.36363636 12.48951049 -1.36363636 12.48951049 -4.4375 10.125 C-6 8 -6 8 -6 6 C-4.02 6.99 -4.02 6.99 -2 8 C-1.855625 6.865625 -1.71125 5.73125 -1.5625 4.5625 C-1 1 -1 1 0 0 Z " fill="#CD2C32" transform="translate(110,309)"/>
<path d="M0 0 C1.32 0.33 2.64 0.66 4 1 C3.34 2.65 2.68 4.3 2 6 C2.99 6.33 3.98 6.66 5 7 C4.83242188 7.6909375 4.66484375 8.381875 4.4921875 9.09375 C3.76956283 13.36067662 4.08656275 17.5322858 4.2578125 21.84375 C3.96837159 25.38720839 3.01744544 27.12083163 1 30 C0.67 30.66 0.34 31.32 0 32 C-0.66 32 -1.32 32 -2 32 C-1.67515625 30.78376953 -1.67515625 30.78376953 -1.34375 29.54296875 C1.22375653 19.33237566 1.56473043 10.36633909 0 0 Z " fill="#B11218" transform="translate(273,252)"/>
<path d="M0 0 C0.66 0.66 1.32 1.32 2 2 C1.69038333 5.92181115 0.37093162 7.96520753 -2 11 C-3.63431362 14.18261073 -4.00012702 15.99263276 -3.9375 19.625 C-4 23 -4 23 -5.50390625 24.7109375 C-5.99761719 25.13632813 -6.49132812 25.56171875 -7 26 C-6.83075166 18.46075584 -5.6906375 5.6906375 0 0 Z " fill="#EE2D35" transform="translate(83,106)"/>
<path d="M0 0 C0.66 0.99 1.32 1.98 2 3 C4.56282742 3.72965366 4.56282742 3.72965366 7 4 C7 5.65 7 7.3 7 9 C0.51707705 9.3669579 0.51707705 9.3669579 -1.9375 7.625 C-3 6 -3 6 -3 4 C-2.34 4 -1.68 4 -1 4 C-0.67 2.68 -0.34 1.36 0 0 Z " fill="#D22228" transform="translate(278,83)"/>
<path d="M0 0 C0.99 0.33 1.98 0.66 3 1 C3 1.66 3 2.32 3 3 C-11.85 3 -26.7 3 -42 3 C-42 2.67 -42 2.34 -42 2 C-40.7632251 1.97494385 -39.5264502 1.9498877 -38.25219727 1.92407227 C-33.68063287 1.83017747 -29.10922682 1.72991371 -24.5378418 1.62768555 C-22.55610854 1.58426856 -20.57433622 1.54259863 -18.5925293 1.50268555 C-15.7503683 1.44514617 -12.90840517 1.38140555 -10.06640625 1.31640625 C-8.72891075 1.29133751 -8.72891075 1.29133751 -7.36439514 1.26576233 C-3.36051605 1.563413 -3.36051605 1.563413 0 0 Z " fill="#B8080F" transform="translate(173,330)"/>
<path d="M0 0 C0.99 0.33 1.98 0.66 3 1 C1.66786942 4.5865054 0.23083941 7.87682483 -2 11 C-2.99 11 -3.98 11 -5 11 C-5.20140476 7.37471432 -4.85776765 5.13498292 -3 2 C-2.01 2 -1.02 2 0 2 C0 1.34 0 0.68 0 0 Z " fill="#D51D24" transform="translate(257,88)"/>
<path d="M0 0 C0.66 2.31 1.32 4.62 2 7 C1.34 7.66 0.68 8.32 0 9 C0 7.68 0 6.36 0 5 C-1.98 5.33 -3.96 5.66 -6 6 C-6 5.34 -6 4.68 -6 4 C-6.66 3.67 -7.32 3.34 -8 3 C-8.33 2.34 -8.66 1.68 -9 1 C-6.04335481 -0.4783226 -3.25770263 -0.06032783 0 0 Z " fill="#D1161D" transform="translate(285,76)"/>
<path d="M0 0 C0.66 0.66 1.32 1.32 2 2 C-2.06849409 4.71232939 -4.16476784 4.30699887 -9 4 C-9.66 3.34 -10.32 2.68 -11 2 C-7.3851134 -1.6148866 -4.80208868 -1.15605838 0 0 Z " fill="#D01E25" transform="translate(78,319)"/>
<path d="M0 0 C0.33 0 0.66 0 1 0 C1.33 2.64 1.66 5.28 2 8 C3.32 8.33 4.64 8.66 6 9 C4.68 9 3.36 9 2 9 C1.34 10.32 0.68 11.64 0 13 C-1.32 12.34 -2.64 11.68 -4 11 C-2.68 7.37 -1.36 3.74 0 0 Z " fill="#BA1119" transform="translate(145,340)"/>
<path d="M0 0 C0 0.66 0 1.32 0 2 C-1.32 2.33 -2.64 2.66 -4 3 C-4 4.65 -4 6.3 -4 8 C-6.97 8 -9.94 8 -13 8 C-9.4918251 4.18228025 -5.53544278 0 0 0 Z " fill="#EE262F" transform="translate(123,67)"/>
<path d="M0 0 C2.31 0 4.62 0 7 0 C8 3 8 3 7 6 C5.02 6 3.04 6 1 6 C0.67 5.34 0.34 4.68 0 4 C-0.66 4 -1.32 4 -2 4 C-1.34 2.68 -0.68 1.36 0 0 Z M1 1 C1.33 1.66 1.66 2.32 2 3 C2.33 2.34 2.66 1.68 3 1 C2.34 1 1.68 1 1 1 Z " fill="#DC2128" transform="translate(237,71)"/>
<path d="M0 0 C1.65 0.33 3.3 0.66 5 1 C4.67 2.65 4.34 4.3 4 6 C2.35 5.67 0.7 5.34 -1 5 C-0.67 3.35 -0.34 1.7 0 0 Z " fill="#F6E3E2" transform="translate(72,324)"/>
<path d="M0 0 C2.475 0.99 2.475 0.99 5 2 C6.07526692 5.14308792 6 7.64424369 6 11 C5.34 11 4.68 11 4 11 C2.68 7.37 1.36 3.74 0 0 Z " fill="#EC202A" transform="translate(79,166)"/>
<path d="M0 0 C1.26772989 2.0880257 2.05965732 3.40342676 1.8125 5.875 C0.73610353 8.69019077 -0.60470301 11.33073619 -2 14 C-2.66 14 -3.32 14 -4 14 C-3.52525225 11.85318469 -3.04508251 9.70756772 -2.5625 7.5625 C-2.29566406 6.36753906 -2.02882813 5.17257812 -1.75390625 3.94140625 C-1 1 -1 1 0 0 Z " fill="#B5272C" transform="translate(275,270)"/>
<path d="M0 0 C2.0625 0.4375 2.0625 0.4375 4 1 C4.33 2.32 4.66 3.64 5 5 C3.35 5.33 1.7 5.66 0 6 C-0.38218767 4.34385343 -0.71395102 2.67542976 -1 1 C-0.67 0.67 -0.34 0.34 0 0 Z " fill="#F5E7E6" transform="translate(139,342)"/>
<path d="M0 0 C2.0625 0.4375 2.0625 0.4375 4 1 C4.33 2.32 4.66 3.64 5 5 C3.35 5.33 1.7 5.66 0 6 C-0.38218767 4.34385343 -0.71395102 2.67542976 -1 1 C-0.67 0.67 -0.34 0.34 0 0 Z " fill="#F6E7E6" transform="translate(110,309)"/>
<path d="M0 0 C2.0625 0.4375 2.0625 0.4375 4 1 C4.33 2.32 4.66 3.64 5 5 C3.35 5.33 1.7 5.66 0 6 C-0.38218767 4.34385343 -0.71395102 2.67542976 -1 1 C-0.67 0.67 -0.34 0.34 0 0 Z " fill="#F7DEDE" transform="translate(239,76)"/>
<path d="M0 0 C1.32 0.33 2.64 0.66 4 1 C2.6875 2.5 2.6875 2.5 1 4 C0.01 4 -0.98 4 -2 4 C-1.34 6.31 -0.68 8.62 0 11 C-0.99 11.33 -1.98 11.66 -3 12 C-3.75 8.8125 -3.75 8.8125 -4 5 C-2.0625 2.0625 -2.0625 2.0625 0 0 Z " fill="#BB1118" transform="translate(138,337)"/>
<path d="M0 0 C0.66 0.33 1.32 0.66 2 1 C2 1.66 2 2.32 2 3 C1.01 3 0.02 3 -1 3 C-1 5.97 -1 8.94 -1 12 C-1.99 11.67 -2.98 11.34 -4 11 C-4.36630156 7.06225823 -4.30233203 5.43460229 -2 2.125 C-1.34 1.42375 -0.68 0.7225 0 0 Z " fill="#C2272D" transform="translate(136,337)"/>
<path d="M0 0 C1 3 1 3 -0.14453125 5.6640625 C-0.97017578 7.12972656 -0.97017578 7.12972656 -1.8125 8.625 C-2.62654297 10.09839844 -2.62654297 10.09839844 -3.45703125 11.6015625 C-5 14 -5 14 -7 15 C-5.67231025 9.20644472 -3.33455096 4.9000081 0 0 Z " fill="#A5181C" transform="translate(307,299)"/>
<path d="M0 0 C0.33 0.99 0.66 1.98 1 3 C-0.109375 4.97265625 -0.109375 4.97265625 -1.75 7.0625 C-2.28109375 7.75472656 -2.8121875 8.44695312 -3.359375 9.16015625 C-5 11 -5 11 -8 13 C-7.40885621 9.64525899 -6.28774559 7.87172235 -4 5.375 C-1.72782776 2.87625688 -1.72782776 2.87625688 0 0 Z " fill="#AE1B20" transform="translate(268,288)"/>
<path d="M0 0 C1.98 0.495 1.98 0.495 4 1 C3.67 2.65 3.34 4.3 3 6 C1.68 5.67 0.36 5.34 -1 5 C-0.67 3.35 -0.34 1.7 0 0 Z " fill="#F8EAEA" transform="translate(280,81)"/>
<path d="M0 0 C1.98 0.495 1.98 0.495 4 1 C3.67 2.65 3.34 4.3 3 6 C1.68 5.67 0.36 5.34 -1 5 C-0.67 3.35 -0.34 1.7 0 0 Z " fill="#F7EDEB" transform="translate(317,71)"/>
<path d="M0 0 C1.32 0.33 2.64 0.66 4 1 C4.33 3.31 4.66 5.62 5 8 C2.5 6.8125 2.5 6.8125 0 5 C-0.3125 2.3125 -0.3125 2.3125 0 0 Z " fill="#C81319" transform="translate(104,310)"/>
<path d="M0 0 C0.66 0.33 1.32 0.66 2 1 C2 1.66 2 2.32 2 3 C3.32 3.66 4.64 4.32 6 5 C6 5.99 6 6.98 6 8 C3.23737447 7.6189482 2.15856106 7.16402868 0.1875 5.125 C-0.204375 4.42375 -0.59625 3.7225 -1 3 C-0.67 2.01 -0.34 1.02 0 0 Z " fill="#B6151B" transform="translate(265,236)"/>
<path d="M0 0 C0.66 1.32 1.32 2.64 2 4 C1.01 4.99 0.02 5.98 -1 7 C-2.32 6.34 -3.64 5.68 -5 5 C-3.35 3.35 -1.7 1.7 0 0 Z " fill="#ED2931" transform="translate(101,81)"/>
<path d="M0 0 C0.33 0 0.66 0 1 0 C1.125 2.875 1.125 2.875 1 6 C0.34 6.66 -0.32 7.32 -1 8 C-3.475 7.01 -3.475 7.01 -6 6 C-5.34 4.68 -4.68 3.36 -4 2 C-4 2.66 -4 3.32 -4 4 C-3.01 4 -2.02 4 -1 4 C-0.67 2.68 -0.34 1.36 0 0 Z " fill="#D44349" transform="translate(326,71)"/>
<path d="M0 0 C1.18234854 3.69483919 1.2804701 7.14353614 1 11 C-0.515625 12.71484375 -0.515625 12.71484375 -2 14 C-1.85866501 12.22880197 -1.71176792 10.45804713 -1.5625 8.6875 C-1.48128906 7.70136719 -1.40007812 6.71523437 -1.31640625 5.69921875 C-1 3 -1 3 0 0 Z " fill="#F0434B" transform="translate(78,118)"/>
<path d="M0 0 C0.99 0.33 1.98 0.66 3 1 C2.01 3.97 1.02 6.94 0 10 C-3 6.25 -3 6.25 -3 4 C-2.01 4 -1.02 4 0 4 C0 2.68 0 1.36 0 0 Z " fill="#ED242D" transform="translate(118,122)"/>
<path d="M0 0 C2.97 1.98 2.97 1.98 6 4 C4.68 4.99 3.36 5.98 2 7 C0.4375 5.1875 0.4375 5.1875 -1 3 C-0.67 2.01 -0.34 1.02 0 0 Z " fill="#DF2028" transform="translate(127,170)"/>
<path d="M0 0 C0.6875 1.6875 0.6875 1.6875 1 4 C-0.25 6.6875 -0.25 6.6875 -2 9 C-2.99 9.33 -3.98 9.66 -5 10 C-3.66511872 6.40608886 -2.03977277 3.24509304 0 0 Z " fill="#EF2F38" transform="translate(89,95)"/>
<path d="M0 0 C2.125 0.9375 2.125 0.9375 4 2 C3.67 2.66 3.34 3.32 3 4 C3.66 4.33 4.32 4.66 5 5 C3.68 5.33 2.36 5.66 1 6 C1 5.34 1 4.68 1 4 C0.34 3.67 -0.32 3.34 -1 3 C-1.33 2.34 -1.66 1.68 -2 1 C-1.34 0.67 -0.68 0.34 0 0 Z " fill="#D5262D" transform="translate(278,76)"/>
<path d="M0 0 C0.7425 0.0825 1.485 0.165 2.25 0.25 C2.25 0.91 2.25 1.57 2.25 2.25 C-0.72 2.91 -3.69 3.57 -6.75 4.25 C-3.42692308 0.31153846 -3.42692308 0.31153846 0 0 Z " fill="#D63E43" transform="translate(73.75,317.75)"/>
<path d="M0 0 C0.66 0.33 1.32 0.66 2 1 C0.3125 3.0625 0.3125 3.0625 -2 5 C-4.75 4.75 -4.75 4.75 -7 4 C-4.61426621 2.10786631 -2.92824652 0.97608217 0 0 Z " fill="#F03C43" transform="translate(130,63)"/>
<path d="M0 0 C0.66 0.33 1.32 0.66 2 1 C-0.625 4.875 -0.625 4.875 -4 6 C-4.66 5.34 -5.32 4.68 -6 4 C-4.02 2.68 -2.04 1.36 0 0 Z " fill="#B11F25" transform="translate(255,301)"/>
<path d="M0 0 C1 3 1 3 0 6 C-2.5625 7.1875 -2.5625 7.1875 -5 8 C-1.125 1.125 -1.125 1.125 0 0 Z " fill="#ED313B" transform="translate(95,87)"/>
<path d="M0 0 C0.33 0.66 0.66 1.32 1 2 C1.66 2 2.32 2 3 2 C3 2.66 3 3.32 3 4 C0.03 3.67 -2.94 3.34 -6 3 C-4.68 2.67 -3.36 2.34 -2 2 C-1.34 1.34 -0.68 0.68 0 0 Z " fill="#DB4349" transform="translate(142,219)"/>
<path d="M0 0 C0.66 0.33 1.32 0.66 2 1 C1.67 1.99 1.34 2.98 1 4 C-0.98 4.33 -2.96 4.66 -5 5 C-3.35 3.35 -1.7 1.7 0 0 Z " fill="#ED313A" transform="translate(115,70)"/>
</svg>
